<mxfile host="app.diagrams.net" agent="Mozilla/5.0 (Windows NT 10.0; Win64; x64; rv:129.0) Gecko/20100101 Firefox/129.0" version="24.7.7">
  <diagram name="Page-1" id="NAnlpV8po5Nv_PaAFcBA">
    <mxGraphModel dx="2087" dy="1287" grid="0" gridSize="10" guides="1" tooltips="1" connect="1" arrows="1" fold="1" page="0" pageScale="1" pageWidth="827" pageHeight="1169" math="0" shadow="0">
      <root>
        <mxCell id="0" />
        <mxCell id="1" parent="0" />
        <mxCell id="6" value="Consulter les formules d&#39;abonnements" style="rounded=1;whiteSpace=wrap" parent="1" vertex="1">
          <mxGeometry x="200" y="-40" width="130" height="50" as="geometry" />
        </mxCell>
        <mxCell id="7" value="S&#39;inscrire" style="rounded=1;whiteSpace=wrap" parent="1" vertex="1">
          <mxGeometry x="200" y="20" width="130" height="50" as="geometry" />
        </mxCell>
        <mxCell id="8" value="Consulter les cours" style="rounded=1;whiteSpace=wrap" parent="1" vertex="1">
          <mxGeometry x="200" y="80" width="130" height="50" as="geometry" />
        </mxCell>
        <mxCell id="9" value="Consulter Catalog Services" style="rounded=1;whiteSpace=wrap" parent="1" vertex="1">
          <mxGeometry x="390" y="-40" width="150" height="50" as="geometry" />
        </mxCell>
        <mxCell id="10" value="Souscrire à un abonnement" style="rounded=1;whiteSpace=wrap" parent="1" vertex="1">
          <mxGeometry x="600" y="140" width="160" height="50" as="geometry" />
        </mxCell>
        <mxCell id="11" value="Réserver un cours" style="rounded=1;whiteSpace=wrap" parent="1" vertex="1">
          <mxGeometry x="600" y="280" width="160" height="50" as="geometry" />
        </mxCell>
        <mxCell id="12" value="Annuler une réservation" style="rounded=1;whiteSpace=wrap" parent="1" vertex="1">
          <mxGeometry x="600" width="160" height="50" as="geometry" />
        </mxCell>
        <mxCell id="13" value="Gérer son abonnement" style="rounded=1;whiteSpace=wrap" parent="1" vertex="1">
          <mxGeometry x="600" y="70" width="160" height="50" as="geometry" />
        </mxCell>
        <mxCell id="14" value="Se connecter" style="rounded=1;whiteSpace=wrap" parent="1" vertex="1">
          <mxGeometry x="600" y="210" width="160" height="50" as="geometry" />
        </mxCell>
        <mxCell id="15" value="Modifier son profil" style="rounded=1;whiteSpace=wrap" parent="1" vertex="1">
          <mxGeometry x="600" y="340" width="160" height="50" as="geometry" />
        </mxCell>
        <mxCell id="16" value="Laisser un commentaire" style="rounded=1;whiteSpace=wrap" parent="1" vertex="1">
          <mxGeometry x="600" y="400" width="160" height="50" as="geometry" />
        </mxCell>
        <mxCell id="17" value="Acheter des services" style="rounded=1;whiteSpace=wrap" parent="1" vertex="1">
          <mxGeometry x="600" y="460" width="160" height="50" as="geometry" />
        </mxCell>
        <mxCell id="18" value="Gérer Catalog Services" style="rounded=1;whiteSpace=wrap" parent="1" vertex="1">
          <mxGeometry x="600" y="640" width="160" height="50" as="geometry" />
        </mxCell>
        <mxCell id="19" value="Accéder aux Stats: cours, membres inscrits" style="rounded=1;whiteSpace=wrap" parent="1" vertex="1">
          <mxGeometry x="600" y="710" width="160" height="50" as="geometry" />
        </mxCell>
        <mxCell id="20" value="Recevoir des notifications" style="rounded=1;whiteSpace=wrap" parent="1" vertex="1">
          <mxGeometry x="600" y="580" width="160" height="50" as="geometry" />
        </mxCell>
        <mxCell id="21" value="Gérer les utilisateurs/membres" style="rounded=1;whiteSpace=wrap" parent="1" vertex="1">
          <mxGeometry x="600" y="780" width="160" height="50" as="geometry" />
        </mxCell>
        <mxCell id="22" value="Suivi des membres" style="rounded=1;whiteSpace=wrap" parent="1" vertex="1">
          <mxGeometry x="600" y="520" width="160" height="50" as="geometry" />
        </mxCell>
        <mxCell id="23" value="Gérer les coachs" style="rounded=1;whiteSpace=wrap" parent="1" vertex="1">
          <mxGeometry x="170" y="570" width="100" height="50" as="geometry" />
        </mxCell>
        <mxCell id="25" value="Planifier des séances" style="rounded=1;whiteSpace=wrap" parent="1" vertex="1">
          <mxGeometry x="90" y="780" width="160" height="50" as="geometry" />
        </mxCell>
        <mxCell id="26" value="Suivre les entraînements" style="rounded=1;whiteSpace=wrap" parent="1" vertex="1">
          <mxGeometry x="260" y="780" width="160" height="50" as="geometry" />
        </mxCell>
        <mxCell id="27" value="Fournir des services personnalisés" style="rounded=1;whiteSpace=wrap" parent="1" vertex="1">
          <mxGeometry x="430" y="780" width="160" height="50" as="geometry" />
        </mxCell>
        <mxCell id="28" style="rounded=1;entryX=0;entryY=0.5;entryDx=0;entryDy=0;exitX=0.5;exitY=0.5;exitDx=0;exitDy=0;exitPerimeter=0;" parent="1" source="KVx_jI3Rg1KagNch0SJf-57" target="6" edge="1">
          <mxGeometry relative="1" as="geometry">
            <mxPoint x="80" y="100" as="sourcePoint" />
          </mxGeometry>
        </mxCell>
        <mxCell id="29" style="rounded=1;entryX=0;entryY=0.5;entryDx=0;entryDy=0;exitX=0.5;exitY=0.5;exitDx=0;exitDy=0;exitPerimeter=0;" parent="1" source="KVx_jI3Rg1KagNch0SJf-57" target="7" edge="1">
          <mxGeometry relative="1" as="geometry">
            <mxPoint x="90" y="90" as="sourcePoint" />
          </mxGeometry>
        </mxCell>
        <mxCell id="30" style="rounded=1;exitX=0.5;exitY=0.5;exitDx=0;exitDy=0;exitPerimeter=0;" parent="1" source="KVx_jI3Rg1KagNch0SJf-57" target="8" edge="1">
          <mxGeometry relative="1" as="geometry">
            <mxPoint x="100" y="115" as="sourcePoint" />
          </mxGeometry>
        </mxCell>
        <mxCell id="31" style="rounded=1;" parent="1" source="6" target="9" edge="1">
          <mxGeometry relative="1" as="geometry" />
        </mxCell>
        <mxCell id="32" style="rounded=1;entryX=0;entryY=0.5;entryDx=0;entryDy=0;exitX=0.5;exitY=0.5;exitDx=0;exitDy=0;exitPerimeter=0;" parent="1" source="KVx_jI3Rg1KagNch0SJf-61" target="10" edge="1">
          <mxGeometry relative="1" as="geometry">
            <mxPoint x="100" y="257.5925925925926" as="sourcePoint" />
          </mxGeometry>
        </mxCell>
        <mxCell id="33" style="rounded=1;exitX=0.5;exitY=0.5;exitDx=0;exitDy=0;exitPerimeter=0;" parent="1" source="KVx_jI3Rg1KagNch0SJf-61" target="11" edge="1">
          <mxGeometry relative="1" as="geometry">
            <mxPoint x="100" y="267.58064516129025" as="sourcePoint" />
          </mxGeometry>
        </mxCell>
        <mxCell id="34" style="rounded=1;entryX=0;entryY=0.64;entryDx=0;entryDy=0;entryPerimeter=0;exitX=0.5;exitY=0.5;exitDx=0;exitDy=0;exitPerimeter=0;" parent="1" source="KVx_jI3Rg1KagNch0SJf-61" target="12" edge="1">
          <mxGeometry relative="1" as="geometry">
            <mxPoint x="94.76394849785402" y="250" as="sourcePoint" />
          </mxGeometry>
        </mxCell>
        <mxCell id="35" style="rounded=1;entryX=0;entryY=0.5;entryDx=0;entryDy=0;exitX=0.5;exitY=0.5;exitDx=0;exitDy=0;exitPerimeter=0;" parent="1" source="KVx_jI3Rg1KagNch0SJf-61" target="13" edge="1">
          <mxGeometry relative="1" as="geometry">
            <mxPoint x="100" y="252" as="sourcePoint" />
          </mxGeometry>
        </mxCell>
        <mxCell id="36" style="rounded=1;exitX=0.5;exitY=0.5;exitDx=0;exitDy=0;exitPerimeter=0;" parent="1" source="KVx_jI3Rg1KagNch0SJf-61" target="14" edge="1">
          <mxGeometry relative="1" as="geometry">
            <mxPoint x="100" y="263.0645161290322" as="sourcePoint" />
          </mxGeometry>
        </mxCell>
        <mxCell id="37" style="rounded=1;entryX=0;entryY=0.5;entryDx=0;entryDy=0;exitX=0.5;exitY=0.5;exitDx=0;exitDy=0;exitPerimeter=0;" parent="1" source="KVx_jI3Rg1KagNch0SJf-61" target="15" edge="1">
          <mxGeometry relative="1" as="geometry">
            <mxPoint x="100" y="272.4074074074074" as="sourcePoint" />
          </mxGeometry>
        </mxCell>
        <mxCell id="38" style="rounded=1;entryX=0;entryY=0.5;entryDx=0;entryDy=0;exitX=0.5;exitY=0.5;exitDx=0;exitDy=0;exitPerimeter=0;" parent="1" source="KVx_jI3Rg1KagNch0SJf-61" target="16" edge="1">
          <mxGeometry relative="1" as="geometry">
            <mxPoint x="100" y="276.85185185185173" as="sourcePoint" />
          </mxGeometry>
        </mxCell>
        <mxCell id="39" style="rounded=1;entryX=0;entryY=0.5;entryDx=0;entryDy=0;exitX=0.5;exitY=0.5;exitDx=0;exitDy=0;exitPerimeter=0;" parent="1" source="KVx_jI3Rg1KagNch0SJf-61" target="17" edge="1">
          <mxGeometry relative="1" as="geometry">
            <mxPoint x="96.81818181818176" y="280" as="sourcePoint" />
            <mxPoint x="600" y="460" as="targetPoint" />
          </mxGeometry>
        </mxCell>
        <mxCell id="40" style="rounded=1;entryX=0;entryY=0.5;entryDx=0;entryDy=0;exitX=0.5;exitY=0.5;exitDx=0;exitDy=0;exitPerimeter=0;" parent="1" source="KVx_jI3Rg1KagNch0SJf-62" target="18" edge="1">
          <mxGeometry relative="1" as="geometry">
            <mxPoint x="92.40000000000009" y="430" as="sourcePoint" />
          </mxGeometry>
        </mxCell>
        <mxCell id="41" style="rounded=1;entryX=0;entryY=0.5;entryDx=0;entryDy=0;exitX=0.5;exitY=0.5;exitDx=0;exitDy=0;exitPerimeter=0;" parent="1" source="KVx_jI3Rg1KagNch0SJf-62" target="19" edge="1">
          <mxGeometry relative="1" as="geometry">
            <mxPoint x="85.3125" y="430" as="sourcePoint" />
          </mxGeometry>
        </mxCell>
        <mxCell id="43" style="rounded=1;entryX=0;entryY=0;entryDx=0;entryDy=0;exitX=0.5;exitY=0.5;exitDx=0;exitDy=0;exitPerimeter=0;" parent="1" source="KVx_jI3Rg1KagNch0SJf-62" target="21" edge="1">
          <mxGeometry relative="1" as="geometry">
            <mxPoint x="82.60602739726028" y="430" as="sourcePoint" />
          </mxGeometry>
        </mxCell>
        <mxCell id="44" style="rounded=1;entryX=0;entryY=0.5;entryDx=0;entryDy=0;exitX=0.5;exitY=0.5;exitDx=0;exitDy=0;exitPerimeter=0;" parent="1" source="KVx_jI3Rg1KagNch0SJf-62" target="22" edge="1">
          <mxGeometry relative="1" as="geometry">
            <mxPoint x="100" y="424.62962962962956" as="sourcePoint" />
          </mxGeometry>
        </mxCell>
        <mxCell id="45" style="rounded=1;exitX=0.5;exitY=0.5;exitDx=0;exitDy=0;exitPerimeter=0;" parent="1" source="KVx_jI3Rg1KagNch0SJf-62" target="23" edge="1">
          <mxGeometry relative="1" as="geometry">
            <mxPoint x="76.02272727272725" y="430" as="sourcePoint" />
          </mxGeometry>
        </mxCell>
        <mxCell id="46" style="rounded=1;entryX=0;entryY=0.5;entryDx=0;entryDy=0;exitX=0.5;exitY=0.5;exitDx=0;exitDy=0;exitPerimeter=0;" parent="1" source="KVx_jI3Rg1KagNch0SJf-62" edge="1">
          <mxGeometry relative="1" as="geometry">
            <mxPoint x="100" y="429.0740740740739" as="sourcePoint" />
            <mxPoint x="599.9999999999998" y="605" as="targetPoint" />
          </mxGeometry>
        </mxCell>
        <mxCell id="47" style="rounded=1;exitX=0.5;exitY=0.5;exitDx=0;exitDy=0;exitPerimeter=0;entryX=0.75;entryY=0;entryDx=0;entryDy=0;" parent="1" source="KVx_jI3Rg1KagNch0SJf-68" target="25" edge="1">
          <mxGeometry relative="1" as="geometry">
            <mxPoint x="66.875" y="580" as="sourcePoint" />
          </mxGeometry>
        </mxCell>
        <mxCell id="48" style="rounded=1;exitX=0.5;exitY=0.5;exitDx=0;exitDy=0;exitPerimeter=0;entryX=0.543;entryY=-0.001;entryDx=0;entryDy=0;entryPerimeter=0;" parent="1" source="KVx_jI3Rg1KagNch0SJf-68" target="26" edge="1">
          <mxGeometry relative="1" as="geometry">
            <mxPoint x="77.5" y="580" as="sourcePoint" />
          </mxGeometry>
        </mxCell>
        <mxCell id="49" style="rounded=1;exitX=0.5;exitY=0.5;exitDx=0;exitDy=0;exitPerimeter=0;" parent="1" source="KVx_jI3Rg1KagNch0SJf-68" target="27" edge="1">
          <mxGeometry relative="1" as="geometry">
            <mxPoint x="88.125" y="580" as="sourcePoint" />
          </mxGeometry>
        </mxCell>
        <mxCell id="50" value="&lt;&lt;include&gt;&gt;" style="edgeStyle=orthogonalEdgeStyle;endArrow=block;endFill=0;dashed=1;exitX=1;exitY=0.5;exitDx=0;exitDy=0;entryX=1;entryY=0.5;entryDx=0;entryDy=0;" parent="1" source="10" target="13" edge="1">
          <mxGeometry relative="1" as="geometry">
            <mxPoint x="610" y="190" as="targetPoint" />
            <Array as="points" />
          </mxGeometry>
        </mxCell>
        <mxCell id="51" value="&lt;&lt;include&gt;&gt;" style="edgeStyle=orthogonalEdgeStyle;endArrow=block;endFill=0;dashed=1;entryX=1;entryY=0.5;entryDx=0;entryDy=0;exitX=1;exitY=0.5;exitDx=0;exitDy=0;" parent="1" source="11" target="14" edge="1">
          <mxGeometry relative="1" as="geometry" />
        </mxCell>
        <mxCell id="52" value="&lt;&lt;include&gt;&gt;" style="edgeStyle=orthogonalEdgeStyle;endArrow=block;endFill=0;dashed=1;exitX=1;exitY=0.5;exitDx=0;exitDy=0;entryX=1;entryY=0.5;entryDx=0;entryDy=0;" parent="1" source="19" target="21" edge="1">
          <mxGeometry relative="1" as="geometry" />
        </mxCell>
        <mxCell id="KVx_jI3Rg1KagNch0SJf-57" value="" style="shape=umlActor;verticalLabelPosition=bottom;verticalAlign=top;html=1;outlineConnect=0;" parent="1" vertex="1">
          <mxGeometry x="50" y="70" width="30" height="60" as="geometry" />
        </mxCell>
        <mxCell id="KVx_jI3Rg1KagNch0SJf-60" value="Visiteur" style="text;html=1;align=center;verticalAlign=middle;resizable=0;points=[];autosize=1;strokeColor=none;fillColor=none;" parent="1" vertex="1">
          <mxGeometry x="-1" y="40" width="60" height="30" as="geometry" />
        </mxCell>
        <mxCell id="KVx_jI3Rg1KagNch0SJf-61" value="" style="shape=umlActor;verticalLabelPosition=bottom;verticalAlign=top;html=1;outlineConnect=0;" parent="1" vertex="1">
          <mxGeometry x="50" y="220" width="30" height="60" as="geometry" />
        </mxCell>
        <mxCell id="KVx_jI3Rg1KagNch0SJf-62" value="" style="shape=umlActor;verticalLabelPosition=bottom;verticalAlign=top;html=1;outlineConnect=0;" parent="1" vertex="1">
          <mxGeometry x="50" y="390" width="30" height="60" as="geometry" />
        </mxCell>
        <mxCell id="KVx_jI3Rg1KagNch0SJf-66" value="Admin" style="text;html=1;align=center;verticalAlign=middle;whiteSpace=wrap;rounded=0;" parent="1" vertex="1">
          <mxGeometry x="-7" y="364" width="60" height="30" as="geometry" />
        </mxCell>
        <mxCell id="KVx_jI3Rg1KagNch0SJf-67" value="Membre" style="text;html=1;align=center;verticalAlign=middle;whiteSpace=wrap;rounded=0;" parent="1" vertex="1">
          <mxGeometry x="-10" y="198" width="60" height="30" as="geometry" />
        </mxCell>
        <mxCell id="KVx_jI3Rg1KagNch0SJf-68" value="" style="shape=umlActor;verticalLabelPosition=bottom;verticalAlign=top;html=1;outlineConnect=0;" parent="1" vertex="1">
          <mxGeometry x="50" y="540" width="30" height="60" as="geometry" />
        </mxCell>
        <mxCell id="KVx_jI3Rg1KagNch0SJf-69" value="Coach" style="text;html=1;align=center;verticalAlign=middle;whiteSpace=wrap;rounded=0;" parent="1" vertex="1">
          <mxGeometry x="-10" y="520" width="60" height="30" as="geometry" />
        </mxCell>
        <mxCell id="qZKsJLmDGMZFvN5hdc6K-52" value="" style="endArrow=classic;html=1;rounded=0;entryX=0.5;entryY=0;entryDx=0;entryDy=0;entryPerimeter=0;exitX=0.5;exitY=0.5;exitDx=0;exitDy=0;exitPerimeter=0;" edge="1" parent="1" source="KVx_jI3Rg1KagNch0SJf-62" target="KVx_jI3Rg1KagNch0SJf-68">
          <mxGeometry width="50" height="50" relative="1" as="geometry">
            <mxPoint x="394" y="415" as="sourcePoint" />
            <mxPoint x="444" y="365" as="targetPoint" />
          </mxGeometry>
        </mxCell>
        <mxCell id="qZKsJLmDGMZFvN5hdc6K-53" value="" style="endArrow=classic;html=1;rounded=0;entryX=0.5;entryY=0.5;entryDx=0;entryDy=0;entryPerimeter=0;" edge="1" parent="1" target="KVx_jI3Rg1KagNch0SJf-57">
          <mxGeometry width="50" height="50" relative="1" as="geometry">
            <mxPoint x="65" y="218" as="sourcePoint" />
            <mxPoint x="80" y="138" as="targetPoint" />
          </mxGeometry>
        </mxCell>
        <mxCell id="qZKsJLmDGMZFvN5hdc6K-56" value="API Payment Stripe" style="rounded=1;whiteSpace=wrap" vertex="1" parent="1">
          <mxGeometry x="847" y="303" width="160" height="50" as="geometry" />
        </mxCell>
        <mxCell id="qZKsJLmDGMZFvN5hdc6K-57" value="" style="endArrow=classic;html=1;rounded=0;entryX=0;entryY=0;entryDx=0;entryDy=0;exitX=1;exitY=0.5;exitDx=0;exitDy=0;" edge="1" parent="1" source="10" target="qZKsJLmDGMZFvN5hdc6K-56">
          <mxGeometry width="50" height="50" relative="1" as="geometry">
            <mxPoint x="397" y="415" as="sourcePoint" />
            <mxPoint x="447" y="365" as="targetPoint" />
          </mxGeometry>
        </mxCell>
        <mxCell id="qZKsJLmDGMZFvN5hdc6K-58" value="" style="endArrow=classic;html=1;rounded=0;entryX=0;entryY=1;entryDx=0;entryDy=0;exitX=1;exitY=0.5;exitDx=0;exitDy=0;" edge="1" parent="1" source="17" target="qZKsJLmDGMZFvN5hdc6K-56">
          <mxGeometry width="50" height="50" relative="1" as="geometry">
            <mxPoint x="397" y="415" as="sourcePoint" />
            <mxPoint x="447" y="365" as="targetPoint" />
          </mxGeometry>
        </mxCell>
      </root>
    </mxGraphModel>
  </diagram>
</mxfile>
